<svg width="40" height="40" viewBox="0 0 40 40" fill="none" xmlns="http://www.w3.org/2000/svg">
<g clip-path="url(#clip0)">
<path d="M20.0001 17.5C16.2778 17.5 11.0001 23.2544 11.0001 26.8867C11.0001 28.5226 12.2568 29.5 14.3629 29.5C16.6523 29.5 18.164 28.3244 20.0001 28.3244C21.8521 28.3244 23.3681 29.5 25.6373 29.5C27.7434 29.5 29.0001 28.5226 29.0001 26.8867C29.0001 23.2544 23.7225 17.5 20.0001 17.5ZM13.0964 16.9089C12.6089 15.2847 11.107 14.2328 9.74199 14.5591C8.37699 14.8853 7.6659 16.4664 8.1534 18.0906C8.6409 19.7148 10.1428 20.7667 11.5078 20.4405C12.8728 20.1142 13.5839 18.5331 13.0964 16.9089V16.9089ZM17.0676 15.9348C18.5179 15.5533 19.2436 13.5939 18.6886 11.5586C18.1336 9.52328 16.5079 8.18312 15.0576 8.56468C13.6073 8.94624 12.8817 10.9056 13.4367 12.9409C13.9917 14.9762 15.6178 16.3169 17.0676 15.9348ZM30.2578 14.5595C28.8928 14.2333 27.3914 15.2852 26.9034 16.9094C26.4159 18.5336 27.127 20.1147 28.492 20.4409C29.857 20.7672 31.3584 19.7153 31.8464 18.0911C32.3339 16.4669 31.6228 14.8858 30.2578 14.5595V14.5595ZM22.9326 15.9348C24.3829 16.3164 26.0085 14.9762 26.5635 12.9409C27.1185 10.9056 26.3929 8.94671 24.9426 8.56468C23.4923 8.18265 21.8667 9.52328 21.3117 11.5586C20.7567 13.5939 21.4823 15.5533 22.9326 15.9348V15.9348Z" fill="#FCA5A5"/>
</g>
<path d="M20 0.625C9.29945 0.625 0.625 9.29945 0.625 20C0.625 30.7005 9.29945 39.375 20 39.375C30.7005 39.375 39.375 30.7005 39.375 20C39.375 9.29945 30.7005 0.625 20 0.625ZM31.0485 8.95148C36.7654 14.6683 37.068 23.5844 32.2957 29.6441L10.3559 7.7043C16.4175 2.93047 25.3332 3.23609 31.0485 8.95148V8.95148ZM8.95148 31.0485C3.23461 25.3317 2.93195 16.4156 7.7043 10.3559L29.6441 32.2957C23.5825 37.0695 14.6668 36.7639 8.95148 31.0485V31.0485Z" fill="#EF4444"/>
<defs>
<clipPath id="clip0">
<rect width="24" height="24" fill="white" transform="translate(8 7)"/>
</clipPath>
</defs>
</svg>
