<svg width="138" height="29" viewBox="0 0 138 29" fill="none" xmlns="http://www.w3.org/2000/svg">
<path d="M36 25.1705H40.7045V18.1136H40.7727C41.3182 19.4432 42.5795 20.4318 44.4205 20.4318C47.2159 20.4318 49.5682 18.25 49.5682 13.7159C49.5682 8.97727 47.0455 7 44.4545 7C42.5114 7 41.2841 8.125 40.7727 9.45455H40.6705V7.17045H36V25.1705ZM40.6023 13.7159C40.6023 11.7727 41.3864 10.6136 42.6818 10.6136C43.9773 10.6136 44.7273 11.7727 44.7273 13.7159C44.7273 15.6591 43.9773 16.8182 42.6818 16.8182C41.3864 16.8182 40.6023 15.625 40.6023 13.7159Z" fill="#F28700"/>
<path d="M60.0277 14.5341C60.0362 15.8295 59.2862 16.6136 58.1186 16.6136C56.9339 16.6136 56.2521 15.8295 56.2436 14.5341V7.17045H51.5391V15.5227C51.5476 18.3864 53.3544 20.4318 56.1072 20.4318C58.0589 20.4318 59.5589 19.4432 60.13 17.7727H60.2663V20.2614H64.7322V7.17045H60.0277V14.5341Z" fill="#F28700"/>
<path d="M67.125 20.2614H71.8295V13.4432C71.8295 11.9432 72.8608 10.9545 74.25 10.9545C74.7358 10.9545 75.5199 11.0312 75.9886 11.1932V7.17898C75.6136 7.06818 75.2045 7 74.7955 7C73.3977 7 72.3068 7.81818 71.8295 9.65909H71.6932V7.17045H67.125V20.2614Z" fill="#F28700"/>
<path d="M77.5312 20.2614H82.2358V13.4432C82.2358 11.9432 83.267 10.9545 84.6562 10.9545C85.142 10.9545 85.9261 11.0312 86.3949 11.1932V7.17898C86.0199 7.06818 85.6108 7 85.2017 7C83.804 7 82.7131 7.81818 82.2358 9.65909H82.0994V7.17045H77.5312V20.2614Z" fill="#F28700"/>
<path d="M88.9943 20.5341C90.2472 20.5341 91.3636 19.4773 91.3807 18.1477C91.3636 16.8523 90.2472 15.7955 88.9943 15.7955C87.6733 15.7955 86.5909 16.8523 86.608 18.1477C86.5909 19.4773 87.6733 20.5341 88.9943 20.5341Z" fill="#F28700"/>
<path d="M97.5852 20.4659C99.2898 20.4659 100.577 19.8864 101.369 18.4205H101.472V20.2614H105.869V11.2955C105.869 8.875 103.577 7 99.8352 7C95.9233 7 93.9972 9.04545 93.8352 11.4318H98.1648C98.2756 10.6222 98.8722 10.2386 99.767 10.2386C100.585 10.2386 101.165 10.6136 101.165 11.2955V11.3295C101.165 12.0881 100.33 12.3267 98.1307 12.4886C95.429 12.6847 93.3239 13.7756 93.3239 16.6477C93.3239 19.2557 95.0795 20.4659 97.5852 20.4659ZM99.1193 17.5C98.3182 17.5 97.7557 17.108 97.7557 16.375C97.7557 15.7017 98.233 15.1818 99.3239 15.0114C100.074 14.892 100.705 14.7386 101.199 14.5341V15.625C101.199 16.8182 100.185 17.5 99.1193 17.5Z" fill="#F28700"/>
<path d="M108.117 25.1705H112.822V18.1136H112.89C113.435 19.4432 114.697 20.4318 116.538 20.4318C119.333 20.4318 121.685 18.25 121.685 13.7159C121.685 8.97727 119.163 7 116.572 7C114.629 7 113.401 8.125 112.89 9.45455H112.788V7.17045H108.117V25.1705ZM112.719 13.7159C112.719 11.7727 113.504 10.6136 114.799 10.6136C116.094 10.6136 116.844 11.7727 116.844 13.7159C116.844 15.6591 116.094 16.8182 114.799 16.8182C113.504 16.8182 112.719 15.625 112.719 13.7159Z" fill="#F28700"/>
<path d="M123.656 25.1705H128.361V18.1136H128.429C128.974 19.4432 130.236 20.4318 132.077 20.4318C134.872 20.4318 137.224 18.25 137.224 13.7159C137.224 8.97727 134.702 7 132.111 7C130.168 7 128.94 8.125 128.429 9.45455H128.327V7.17045H123.656V25.1705ZM128.259 13.7159C128.259 11.7727 129.043 10.6136 130.338 10.6136C131.634 10.6136 132.384 11.7727 132.384 13.7159C132.384 15.6591 131.634 16.8182 130.338 16.8182C129.043 16.8182 128.259 15.625 128.259 13.7159Z" fill="#F28700"/>
<g clip-path="url(#clip0)">
<path d="M27.2001 4.6362V4.59997L27.1803 4.6198C25.8436 3.61628 24.2003 2.99997 22.4001 2.99997C20.5999 2.99997 18.9566 3.61628 17.6199 4.6198L17.6001 4.59997V4.6362C15.6677 6.09656 14.4001 8.39119 14.4001 11C14.4029 11.5772 14.4681 12.1525 14.5947 12.7157C12.8027 12.9828 10.0051 13.8786 8.0001 16.8976V12.6C7.99871 11.3274 7.49255 10.1073 6.59267 9.2074C5.6928 8.30753 4.47271 7.80137 3.2001 7.79998C2.77575 7.79998 2.36878 7.96855 2.06873 8.26861C1.76867 8.56867 1.6001 8.97563 1.6001 9.39998C1.6001 9.82433 1.76867 10.2313 2.06873 10.5314C2.36878 10.8314 2.77575 11 3.2001 11C3.62427 11.0005 4.03092 11.1693 4.33086 11.4692C4.6308 11.7692 4.79955 12.1758 4.8001 12.6V25.4C4.80094 26.2484 5.13835 27.0619 5.73828 27.6618C6.33822 28.2618 7.15166 28.5992 8.0001 28.6H16.8001C16.9052 28.6001 17.0092 28.5794 17.1063 28.5392C17.2034 28.499 17.2916 28.4401 17.3659 28.3658C17.4402 28.2915 17.4991 28.2033 17.5393 28.1062C17.5795 28.0091 17.6002 27.9051 17.6001 27.8V27C17.6001 26.5757 17.4315 26.1687 17.1314 25.8686C16.8314 25.5686 16.4244 25.4 16.0001 25.4H14.4001L20.8001 20.6V27.8C20.8 27.9051 20.8207 28.0091 20.8609 28.1062C20.9011 28.2033 20.96 28.2915 21.0343 28.3658C21.1086 28.4401 21.1968 28.499 21.2939 28.5392C21.391 28.5794 21.495 28.6001 21.6001 28.6H23.2001C23.3052 28.6001 23.4092 28.5794 23.5063 28.5392C23.6034 28.499 23.6916 28.4401 23.7659 28.3658C23.8402 28.2915 23.8991 28.2033 23.9393 28.1062C23.9795 28.0091 24.0002 27.9051 24.0001 27.8V18.8388C25.8067 18.4696 27.4304 17.4879 28.5966 16.0595C29.7628 14.6312 30.3999 12.8439 30.4001 11C30.4001 8.39119 29.1325 6.09656 27.2001 4.6362ZM22.4001 4.59997C23.7053 4.60062 24.9787 5.00325 26.047 5.7531L24.0001 7.79998H20.8001L18.7532 5.7531C19.8215 5.00325 21.0949 4.60062 22.4001 4.59997V4.59997ZM25.2001 11C25.2001 11.1582 25.1532 11.3129 25.0653 11.4444C24.9774 11.576 24.8524 11.6785 24.7062 11.7391C24.5601 11.7996 24.3992 11.8155 24.244 11.7846C24.0888 11.7537 23.9463 11.6775 23.8344 11.5657C23.7225 11.4538 23.6463 11.3112 23.6155 11.1561C23.5846 11.0009 23.6004 10.84 23.661 10.6938C23.7215 10.5477 23.8241 10.4227 23.9556 10.3348C24.0872 10.2469 24.2419 10.2 24.4001 10.2C24.5052 10.1999 24.6092 10.2206 24.7063 10.2608C24.8034 10.3009 24.8916 10.3599 24.9659 10.4342C25.0402 10.5085 25.0991 10.5967 25.1393 10.6938C25.1795 10.7909 25.2002 10.8949 25.2001 11V11ZM21.2001 11C21.2001 11.1582 21.1532 11.3129 21.0653 11.4444C20.9774 11.576 20.8524 11.6785 20.7062 11.7391C20.5601 11.7996 20.3992 11.8155 20.244 11.7846C20.0888 11.7537 19.9463 11.6775 19.8344 11.5657C19.7225 11.4538 19.6463 11.3112 19.6155 11.1561C19.5846 11.0009 19.6004 10.84 19.661 10.6938C19.7215 10.5477 19.8241 10.4227 19.9556 10.3348C20.0872 10.2469 20.2419 10.2 20.4001 10.2C20.5052 10.1999 20.6092 10.2206 20.7063 10.2608C20.8034 10.3009 20.8916 10.3599 20.9659 10.4342C21.0402 10.5085 21.0991 10.5967 21.1393 10.6938C21.1795 10.7909 21.2002 10.8949 21.2001 11V11ZM22.4001 17.4C20.7033 17.3981 19.0765 16.7232 17.8767 15.5234C16.6769 14.3235 16.002 12.6968 16.0001 11C16.0001 9.39148 16.6168 7.93728 17.6001 6.81179V11C17.6001 12.273 18.1058 13.4939 19.006 14.3941C19.9062 15.2943 21.1271 15.8 22.4001 15.8C23.6731 15.8 24.894 15.2943 25.7942 14.3941C26.6944 13.4939 27.2001 12.273 27.2001 11V6.81179C28.1834 7.93728 28.8001 9.39148 28.8001 11C28.7982 12.6968 28.1233 14.3235 26.9235 15.5234C25.7237 16.7232 24.0969 17.3981 22.4001 17.4ZM8.14736 6.43845L10.1329 7.26648L10.961 9.25203C10.9831 9.29646 11.0171 9.33385 11.0592 9.35999C11.1013 9.38613 11.1499 9.39998 11.1995 9.39998C11.2491 9.39998 11.2977 9.38613 11.3398 9.35999C11.382 9.33385 11.416 9.29646 11.438 9.25203L12.2659 7.26648L14.2517 6.43845C14.2959 6.41627 14.3331 6.38221 14.3591 6.34009C14.3852 6.29796 14.3989 6.24943 14.3989 6.19993C14.3989 6.15042 14.3852 6.10189 14.3591 6.05976C14.3331 6.01764 14.2959 5.98358 14.2517 5.9614L12.2659 5.13347L11.438 3.14782C11.4159 3.10342 11.3819 3.06605 11.3398 3.03993C11.2977 3.01381 11.2491 2.99997 11.1995 2.99997C11.1499 2.99997 11.1013 3.01381 11.0592 3.03993C11.0171 3.06605 10.9831 3.10342 10.961 3.14782L10.1329 5.13347L8.14736 5.9614C8.1031 5.98358 8.06589 6.01764 8.03988 6.05976C8.01387 6.10189 8.0001 6.15042 8.0001 6.19992C8.0001 6.24943 8.01387 6.29796 8.03988 6.34009C8.06589 6.38221 8.1031 6.41627 8.14736 6.43845V6.43845Z" fill="#F28700"/>
</g>
<defs>
<clipPath id="clip0">
<rect width="32" height="25.6" fill="white" transform="translate(0 3)"/>
</clipPath>
</defs>
</svg>
