<svg width="40" height="40" viewBox="0 0 40 40" fill="none" xmlns="http://www.w3.org/2000/svg">
<path d="M20.0001 17.5C13.7962 17.5 5.00011 27.0906 5.00011 33.1445C5.00011 35.8711 7.09464 37.5 10.6048 37.5C14.4204 37.5 16.94 35.5406 20.0001 35.5406C23.0868 35.5406 25.6134 37.5 29.3954 37.5C32.9056 37.5 35.0001 35.8711 35.0001 33.1445C35.0001 27.0906 26.204 17.5 20.0001 17.5ZM8.49386 16.5148C7.68136 13.8078 5.17824 12.0547 2.90324 12.5984C0.628236 13.1422 -0.55692 15.7773 0.25558 18.4844C1.06808 21.1914 3.5712 22.9445 5.8462 22.4008C8.1212 21.857 9.30636 19.2219 8.49386 16.5148V16.5148ZM15.1126 14.8914C17.5298 14.2555 18.7392 10.9898 17.8142 7.59766C16.8892 4.20547 14.1798 1.97188 11.7626 2.60781C9.34542 3.24375 8.13605 6.50938 9.06105 9.90156C9.98605 13.2938 12.6962 15.5281 15.1126 14.8914ZM37.0962 12.5992C34.8212 12.0555 32.3189 13.8086 31.5056 16.5156C30.6931 19.2227 31.8782 21.8578 34.1532 22.4016C36.4282 22.9453 38.9306 21.1922 39.7439 18.4852C40.5564 15.7781 39.3712 13.143 37.0962 12.5992V12.5992ZM24.8876 14.8914C27.3048 15.5273 30.0142 13.2938 30.9392 9.90156C31.8642 6.50938 30.6548 3.24453 28.2376 2.60781C25.8204 1.9711 23.111 4.20547 22.186 7.59766C21.261 10.9898 22.4704 14.2555 24.8876 14.8914V14.8914Z" fill="#10B981"/>
<defs>
</defs>
</svg>
